<mxfile host="app.diagrams.net" modified="2023-06-01T08:32:19.207Z" agent="Mozilla/5.0 (Windows NT 10.0; Win64; x64) AppleWebKit/537.36 (KHTML, like Gecko) Chrome/113.0.0.0 Safari/537.36" version="21.3.5" etag="h9e_4xh8I6wK7frmajWl" type="github">
  <diagram name="Page-1" id="EM3cwYBLlDpZK1aap4JQ">
    <mxGraphModel>
      <root>
        <mxCell id="0" />
        <mxCell id="1" parent="0" />
      </root>
    </mxGraphModel>
  </diagram>
</mxfile>
